<svg width="20" height="18" viewBox="0 0 20 18" fill="none" xmlns="http://www.w3.org/2000/svg">
<path d="M0 16.8008V14.0008C0 13.4508 0.141667 12.9341 0.425 12.4508C0.708333 11.9674 1.1 11.6008 1.6 11.3508C2.45 10.9174 3.40833 10.5508 4.475 10.2508C5.54167 9.95078 6.71667 9.80078 8 9.80078C8.5 9.80078 8.9875 9.82578 9.4625 9.87578C9.9375 9.92578 10.4 10.0008 10.85 10.1008L9.1 11.8508C8.91667 11.8174 8.7375 11.8008 8.5625 11.8008H8C6.81667 11.8008 5.75417 11.9424 4.8125 12.2258C3.87083 12.5091 3.1 12.8174 2.5 13.1508C2.35 13.2341 2.22917 13.3508 2.1375 13.5008C2.04583 13.6508 2 13.8174 2 14.0008V14.8008H8.25L10.25 16.8008H0ZM13.55 17.2008L10.1 13.7508L11.5 12.3508L13.55 14.4008L18.6 9.35078L20 10.7508L13.55 17.2008ZM8 8.80078C6.9 8.80078 5.95833 8.40911 5.175 7.62578C4.39167 6.84245 4 5.90078 4 4.80078C4 3.70078 4.39167 2.75911 5.175 1.97578C5.95833 1.19245 6.9 0.800781 8 0.800781C9.1 0.800781 10.0417 1.19245 10.825 1.97578C11.6083 2.75911 12 3.70078 12 4.80078C12 5.90078 11.6083 6.84245 10.825 7.62578C10.0417 8.40911 9.1 8.80078 8 8.80078ZM8 6.80078C8.55 6.80078 9.02083 6.60495 9.4125 6.21328C9.80417 5.82161 10 5.35078 10 4.80078C10 4.25078 9.80417 3.77995 9.4125 3.38828C9.02083 2.99661 8.55 2.80078 8 2.80078C7.45 2.80078 6.97917 2.99661 6.5875 3.38828C6.19583 3.77995 6 4.25078 6 4.80078C6 5.35078 6.19583 5.82161 6.5875 6.21328C6.97917 6.60495 7.45 6.80078 8 6.80078Z" fill="#748392"/>
</svg>
