<svg width="90" height="90" viewBox="0 0 90 90" fill="none" xmlns="http://www.w3.org/2000/svg">
<path d="M45 9C64.8824 9 81 25.1177 81 45C81 64.8824 64.8824 81 45 81C25.1177 81 9 64.8824 9 45C9 25.1177 25.1177 9 45 9ZM45 13.5C27.603 13.5 13.5 27.603 13.5 45C13.5 62.397 27.603 76.5 45 76.5C62.397 76.5 76.5 62.397 76.5 45C76.5 27.603 62.397 13.5 45 13.5Z" fill="#FF9E01"/>
<path d="M38.1885 44.1025C34.818 40.3422 34.5329 33.9467 37.6084 30.9614C40.2888 28.3612 45.9197 28.3412 48.6301 30.9314C51.7606 33.9217 51.5106 40.3622 48.12 44.0325C51.6856 47.8378 51.3855 52.3131 50.0103 56.7685C49.0752 59.7937 46.3348 60.7238 43.4493 60.7988C40.4888 60.8788 37.8334 60.0587 36.3782 57.1085C34.4779 53.2582 35.323 47.2627 38.1885 44.0975V44.1025ZM45.9197 51.418H45.8597C45.8597 50.753 45.8897 50.0879 45.8547 49.4229C45.7647 47.7028 44.9595 46.5227 43.1443 46.4877C41.439 46.4527 40.5588 47.6077 40.4388 49.1679C40.3138 50.813 40.1588 52.5631 40.5989 54.1033C40.8589 55.0233 42.2391 56.2034 43.1142 56.2034C43.9894 56.2034 45.0846 55.0233 45.6746 54.0983C46.1047 53.4232 45.8597 52.3231 45.9197 51.418ZM45.8747 38.462C45.8747 34.7767 45.0996 33.4916 43.1693 33.4716C41.0389 33.4516 40.1188 35.2218 40.3688 38.8521C40.5288 41.1572 41.664 42.3423 43.5943 41.8673C44.3995 41.6673 45.2046 40.8472 45.6797 40.0972C46.0347 39.5421 45.8597 38.652 45.8747 38.457V38.462Z" fill="#FF9E01"/>
<path d="M32.2563 29.0913V60.2937H27.5256V36.9819C26.2203 36.9119 25.1802 36.8569 24 36.7919V33.5567C25.5 32.5 26.3995 32.067 28 31C29.5 30 30.9661 29.5013 32.2563 29.0913Z" fill="#FF9E01"/>
<path d="M60.3044 43.3322C62.1297 43.4172 63.5899 43.4872 65.1802 43.5623V46.2975H60.4794V51.2379H57.864V46.4775H52.9883V43.5723C54.4935 43.4973 55.9587 43.4272 57.629 43.3472C57.719 41.8571 57.809 40.402 57.904 38.8069H60.3044V43.3322Z" fill="#FF9E01"/>
</svg>
