<svg width="16" height="16" viewBox="0 0 16 16" fill="none" xmlns="http://www.w3.org/2000/svg">
<path d="M4.00161 1.32952C4.20038 1.36902 4.55617 1.44001 4.91196 1.51101C5.09429 1.54726 5.27636 1.58676 5.45948 1.61951C5.72476 1.66675 5.96343 1.61051 6.15333 1.42202C6.35548 1.22152 6.54512 1.00953 6.74701 0.809044C6.93977 0.617803 7.12576 0.415813 7.34226 0.25182C7.78257 -0.081664 8.27035 -0.0861638 8.70361 0.25557C8.96994 0.46556 9.19322 0.725798 9.43267 0.966537C9.5704 1.10503 9.70135 1.25002 9.83594 1.39152C10.0571 1.62376 10.3326 1.68225 10.6443 1.61926C11.0515 1.53676 11.4561 1.43876 11.8664 1.37477C12.0771 1.34202 12.3033 1.33927 12.5133 1.37402C13.0282 1.45976 13.2773 1.813 13.3621 2.27173C13.4314 2.64771 13.4539 3.03144 13.4995 3.41142C13.5133 3.52692 13.5321 3.64216 13.5548 3.75641C13.6023 3.99664 13.7379 4.18089 13.968 4.28613C14.3084 4.44212 14.6564 4.58262 14.9973 4.73711C15.1616 4.81161 15.326 4.89135 15.4759 4.98885C15.9687 5.30908 16.1205 5.75081 15.9027 6.28379C15.8004 6.53378 15.6518 6.76651 15.5172 7.00375C15.3784 7.24849 15.2274 7.48648 15.0896 7.73172C14.9863 7.91596 14.9848 8.11145 15.0847 8.29594C15.2245 8.55418 15.3839 8.80242 15.5237 9.06066C15.6671 9.32539 15.8291 9.58663 15.9256 9.86762C16.0861 10.3356 15.9405 10.7436 15.5106 11.0133C15.2156 11.1983 14.8807 11.3253 14.5612 11.4735C14.413 11.5423 14.2614 11.606 14.1075 11.6618C13.6915 11.812 13.5316 12.12 13.4977 12.5225C13.4648 12.912 13.4301 13.3027 13.3634 13.6877C13.2637 14.2619 12.9481 14.5829 12.3852 14.6576C12.1379 14.6906 11.8744 14.6511 11.624 14.6111C11.2612 14.5531 10.9038 14.4637 10.5434 14.3902C10.2663 14.3337 10.024 14.4009 9.83046 14.5991C9.5811 14.8544 9.34268 15.1196 9.09175 15.3731C8.95454 15.5116 8.81108 15.6478 8.65301 15.7628C8.2174 16.0796 7.74161 16.0806 7.30835 15.7616C7.13384 15.6331 6.97812 15.4786 6.82735 15.3241C6.64032 15.1326 6.46034 14.9341 6.28975 14.7291C5.99525 14.3757 5.62668 14.2982 5.1835 14.4082C4.82301 14.4977 4.45731 14.5719 4.0903 14.6331C3.83311 14.6761 3.56965 14.6756 3.3182 14.5854C2.90189 14.4357 2.70808 14.1122 2.63869 13.7212C2.5727 13.3487 2.54766 12.9697 2.50332 12.5937C2.4921 12.4987 2.47697 12.4043 2.46236 12.3098C2.41958 12.0308 2.27403 11.818 2.00588 11.6968C1.68035 11.5495 1.34803 11.4165 1.0225 11.2696C0.850338 11.1916 0.676876 11.1101 0.520629 11.0071C0.0278922 10.6813 -0.124702 10.2414 0.104059 9.71088C0.240742 9.39414 0.439506 9.1019 0.612186 8.79967C0.703743 8.63918 0.801038 8.48143 0.891812 8.32044C1.01937 8.0942 1.01728 7.86471 0.889986 7.64022C0.769998 7.42823 0.63514 7.22399 0.519325 7.01C0.361774 6.71952 0.183095 6.43403 0.0735402 6.12679C-0.0834887 5.68657 0.0685841 5.30858 0.448897 5.01885C0.745739 4.79286 1.09866 4.67086 1.4422 4.53162C1.58618 4.47337 1.72756 4.40887 1.87337 4.35613C2.30142 4.20163 2.47462 3.8899 2.50619 3.47017C2.53488 3.08894 2.58496 2.70871 2.63609 2.32947C2.65148 2.21573 2.69321 2.10273 2.7386 1.99549C2.92771 1.54826 3.29811 1.32652 4.00135 1.33002L4.00161 1.32952ZM4.46174 8.29619C4.49591 8.31569 4.54026 8.33119 4.57052 8.36019C5.1835 8.94516 5.79466 9.53164 6.40661 10.1179C6.77414 10.4698 7.14741 10.4691 7.51703 10.1139C8.7876 8.89266 10.0579 7.67097 11.3282 6.44953C11.3614 6.41753 11.3932 6.38453 11.4148 6.36278C11.0966 6.0563 10.7859 5.75706 10.4523 5.43558C9.28712 6.55502 8.11671 7.67947 6.92204 8.82717C6.41861 8.34069 5.91804 7.85721 5.4227 7.37874C5.11203 7.67572 4.80189 7.97196 4.462 8.29669L4.46174 8.29619Z" fill="#0FBBF0"/>
</svg>
