<svg width="90" height="90" viewBox="0 0 90 90" fill="none" xmlns="http://www.w3.org/2000/svg">
    <path d="M45 9C64.8824 9 81 25.1177 81 45C81 64.8824 64.8824 81 45 81C25.1177 81 9 64.8824 9 45C9 25.1177 25.1177 9 45 9ZM45 13.5C27.603 13.5 13.5 27.603 13.5 45C13.5 62.397 27.603 76.5 45 76.5C62.397 76.5 76.5 62.397 76.5 45C76.5 27.603 62.397 13.5 45 13.5Z"
          fill="#FF9E01"/>
    <path d="M58.3327 60V56.6667C58.3327 54.8986 57.6303 53.2029 56.3801 51.9526C55.1298 50.7024 53.4341 50 51.666 50H38.3327C36.5646 50 34.8689 50.7024 33.6186 51.9526C32.3684 53.2029 31.666 54.8986 31.666 56.6667V60"
          stroke="#FF9E01" stroke-width="4" stroke-linecap="round" stroke-linejoin="round"/>
    <path d="M45.0007 43.3333C48.6825 43.3333 51.6673 40.3486 51.6673 36.6667C51.6673 32.9848 48.6825 30 45.0007 30C41.3188 30 38.334 32.9848 38.334 36.6667C38.334 40.3486 41.3188 43.3333 45.0007 43.3333Z"
          stroke="#FF9E01" stroke-width="4" stroke-linecap="round" stroke-linejoin="round"/>
</svg>
