<svg width="17" height="16" viewBox="0 0 17 16" fill="none" xmlns="http://www.w3.org/2000/svg">
<path d="M2.33398 16C1.78398 16 1.31315 15.8042 0.921484 15.4125C0.529818 15.0208 0.333984 14.55 0.333984 14C0.333984 13.45 0.529818 12.9792 0.921484 12.5875C1.31315 12.1958 1.78398 12 2.33398 12C2.88398 12 3.35482 12.1958 3.74648 12.5875C4.13815 12.9792 4.33398 13.45 4.33398 14C4.33398 14.55 4.13815 15.0208 3.74648 15.4125C3.35482 15.8042 2.88398 16 2.33398 16ZM8.33398 16C7.78398 16 7.31315 15.8042 6.92148 15.4125C6.52982 15.0208 6.33398 14.55 6.33398 14C6.33398 13.45 6.52982 12.9792 6.92148 12.5875C7.31315 12.1958 7.78398 12 8.33398 12C8.88398 12 9.35482 12.1958 9.74648 12.5875C10.1382 12.9792 10.334 13.45 10.334 14C10.334 14.55 10.1382 15.0208 9.74648 15.4125C9.35482 15.8042 8.88398 16 8.33398 16ZM14.334 16C13.784 16 13.3132 15.8042 12.9215 15.4125C12.5298 15.0208 12.334 14.55 12.334 14C12.334 13.45 12.5298 12.9792 12.9215 12.5875C13.3132 12.1958 13.784 12 14.334 12C14.884 12 15.3548 12.1958 15.7465 12.5875C16.1382 12.9792 16.334 13.45 16.334 14C16.334 14.55 16.1382 15.0208 15.7465 15.4125C15.3548 15.8042 14.884 16 14.334 16ZM2.33398 10C1.78398 10 1.31315 9.80417 0.921484 9.4125C0.529818 9.02083 0.333984 8.55 0.333984 8C0.333984 7.45 0.529818 6.97917 0.921484 6.5875C1.31315 6.19583 1.78398 6 2.33398 6C2.88398 6 3.35482 6.19583 3.74648 6.5875C4.13815 6.97917 4.33398 7.45 4.33398 8C4.33398 8.55 4.13815 9.02083 3.74648 9.4125C3.35482 9.80417 2.88398 10 2.33398 10ZM8.33398 10C7.78398 10 7.31315 9.80417 6.92148 9.4125C6.52982 9.02083 6.33398 8.55 6.33398 8C6.33398 7.45 6.52982 6.97917 6.92148 6.5875C7.31315 6.19583 7.78398 6 8.33398 6C8.88398 6 9.35482 6.19583 9.74648 6.5875C10.1382 6.97917 10.334 7.45 10.334 8C10.334 8.55 10.1382 9.02083 9.74648 9.4125C9.35482 9.80417 8.88398 10 8.33398 10ZM14.334 10C13.784 10 13.3132 9.80417 12.9215 9.4125C12.5298 9.02083 12.334 8.55 12.334 8C12.334 7.45 12.5298 6.97917 12.9215 6.5875C13.3132 6.19583 13.784 6 14.334 6C14.884 6 15.3548 6.19583 15.7465 6.5875C16.1382 6.97917 16.334 7.45 16.334 8C16.334 8.55 16.1382 9.02083 15.7465 9.4125C15.3548 9.80417 14.884 10 14.334 10ZM2.33398 4C1.78398 4 1.31315 3.80417 0.921484 3.4125C0.529818 3.02083 0.333984 2.55 0.333984 2C0.333984 1.45 0.529818 0.979167 0.921484 0.5875C1.31315 0.195833 1.78398 0 2.33398 0C2.88398 0 3.35482 0.195833 3.74648 0.5875C4.13815 0.979167 4.33398 1.45 4.33398 2C4.33398 2.55 4.13815 3.02083 3.74648 3.4125C3.35482 3.80417 2.88398 4 2.33398 4ZM8.33398 4C7.78398 4 7.31315 3.80417 6.92148 3.4125C6.52982 3.02083 6.33398 2.55 6.33398 2C6.33398 1.45 6.52982 0.979167 6.92148 0.5875C7.31315 0.195833 7.78398 0 8.33398 0C8.88398 0 9.35482 0.195833 9.74648 0.5875C10.1382 0.979167 10.334 1.45 10.334 2C10.334 2.55 10.1382 3.02083 9.74648 3.4125C9.35482 3.80417 8.88398 4 8.33398 4ZM14.334 4C13.784 4 13.3132 3.80417 12.9215 3.4125C12.5298 3.02083 12.334 2.55 12.334 2C12.334 1.45 12.5298 0.979167 12.9215 0.5875C13.3132 0.195833 13.784 0 14.334 0C14.884 0 15.3548 0.195833 15.7465 0.5875C16.1382 0.979167 16.334 1.45 16.334 2C16.334 2.55 16.1382 3.02083 15.7465 3.4125C15.3548 3.80417 14.884 4 14.334 4Z" fill="white"/>
</svg>
