<svg width="21" height="18" viewBox="0 0 21 18" fill="none" xmlns="http://www.w3.org/2000/svg">
<path d="M17 0C17.552 0 18 0.448 18 1V2.757L16 4.757V2H2V10.1L6 6.1L10.328 10.429L8.913 11.842L6 8.93L2 12.929V16H12.533L13.241 16.001L14.57 14.671L15.9 16H16V13.242L18 11.242V17C18 17.552 17.552 18 17 18H1C0.45 18 0 17.55 0 17V1C0 0.448 0.448 0 1 0H17ZM18.778 4.808L20.192 6.222L12.414 14L10.998 13.998L11 12.586L18.778 4.808ZM12.5 4C13.328 4 14 4.672 14 5.5C14 6.328 13.328 7 12.5 7C11.672 7 11 6.328 11 5.5C11 4.672 11.672 4 12.5 4Z" fill="white"/>
</svg>
