<svg width="13" height="9" viewBox="0 0 13 9" fill="none" xmlns="http://www.w3.org/2000/svg">
<path d="M12.1875 1.25C12.1875 1.4579 12.1082 1.6659 11.9495 1.82434L5.44946 8.32434C5.29141 8.48379 5.0832 8.5625 4.875 8.5625C4.6668 8.5625 4.4591 8.48315 4.30066 8.32446L1.05066 5.07446C0.891973 4.91641 0.8125 4.7082 0.8125 4.5C0.8125 4.03586 1.19209 3.6875 1.625 3.6875C1.8329 3.6875 2.0409 3.76685 2.19934 3.92554L4.875 6.60234L10.8012 0.676172C10.9586 0.516973 11.1668 0.4375 11.375 0.4375C11.8092 0.4375 12.1875 0.785352 12.1875 1.25Z" fill="#010101"/>
</svg>
