<svg width="20" height="20" viewBox="0 0 20 20" fill="none" xmlns="http://www.w3.org/2000/svg">
<g clip-path="url(#clip0_1762_15850)">
<path d="M16.6667 7.5H9.16667C8.24619 7.5 7.5 8.24619 7.5 9.16667V16.6667C7.5 17.5871 8.24619 18.3333 9.16667 18.3333H16.6667C17.5871 18.3333 18.3333 17.5871 18.3333 16.6667V9.16667C18.3333 8.24619 17.5871 7.5 16.6667 7.5Z" stroke="white" stroke-width="2" stroke-linecap="round" stroke-linejoin="round"/>
<path d="M4.16797 12.4998H3.33464C2.89261 12.4998 2.46868 12.3242 2.15612 12.0117C1.84356 11.6991 1.66797 11.2752 1.66797 10.8332V3.33317C1.66797 2.89114 1.84356 2.46722 2.15612 2.15466C2.46868 1.8421 2.89261 1.6665 3.33464 1.6665H10.8346C11.2767 1.6665 11.7006 1.8421 12.0131 2.15466C12.3257 2.46722 12.5013 2.89114 12.5013 3.33317V4.1665" stroke="white" stroke-width="2" stroke-linecap="round" stroke-linejoin="round"/>
</g>
<defs>
<clipPath id="clip0_1762_15850">
<rect width="20" height="20" fill="white"/>
</clipPath>
</defs>
</svg>
