<svg width="16" height="16" viewBox="0 0 16 16" fill="none" xmlns="http://www.w3.org/2000/svg">
<path d="M2.66732 13.3334C2.30065 13.3334 1.98687 13.203 1.72598 12.9421C1.46465 12.6807 1.33398 12.3667 1.33398 12.0001V4.00008C1.33398 3.63341 1.46465 3.31964 1.72598 3.05875C1.98687 2.79741 2.30065 2.66675 2.66732 2.66675H13.334C13.7007 2.66675 14.0147 2.79741 14.276 3.05875C14.5369 3.31964 14.6673 3.63341 14.6673 4.00008V12.0001C14.6673 12.3667 14.5369 12.6807 14.276 12.9421C14.0147 13.203 13.7007 13.3334 13.334 13.3334H2.66732ZM13.334 5.33341L8.35065 8.45008C8.2951 8.48341 8.23665 8.5083 8.17532 8.52475C8.11443 8.54164 8.05621 8.55008 8.00065 8.55008C7.9451 8.55008 7.88687 8.54164 7.82598 8.52475C7.76465 8.5083 7.70621 8.48341 7.65065 8.45008L2.66732 5.33341V12.0001H13.334V5.33341ZM8.00065 7.33341L13.334 4.00008H2.66732L8.00065 7.33341ZM2.66732 5.33341V5.50008V4.51675V4.53341V4.00008V4.53341V4.52475V5.50008V5.33341V12.0001V5.33341Z" fill="#010101"/>
</svg>
