<svg width="90" height="90" viewBox="0 0 90 90" fill="none" xmlns="http://www.w3.org/2000/svg">
<path d="M14.6659 52.2095C17.7414 37.471 30.5747 27 45 27C59.4257 27 72.2583 37.471 75.3341 52.2095C75.5883 53.4263 76.7799 54.2066 77.9963 53.9528C79.2131 53.6985 79.9934 52.5069 79.7396 51.2905C76.2413 34.529 61.6203 22.5 45 22.5C28.3797 22.5 13.7584 34.529 10.2608 51.2905C10.007 52.5069 10.7873 53.6985 12.0038 53.9528C13.2202 54.2066 14.4121 53.4263 14.6659 52.2095Z" fill="#FF9E01"/>
<path d="M45 36C36.3015 36 29.25 43.0515 29.25 51.75C29.25 60.4485 36.3015 67.5 45 67.5C53.6985 67.5 60.75 60.4485 60.75 51.75C60.75 43.0515 53.6985 36 45 36ZM33.75 51.75C33.75 45.5368 38.7868 40.5 45 40.5C51.2132 40.5 56.25 45.5368 56.25 51.75C56.25 57.9632 51.2132 63 45 63C38.7868 63 33.75 57.9632 33.75 51.75Z" fill="#FF9E01"/>
</svg>
