<svg width="90" height="90" viewBox="0 0 90 90" fill="none" xmlns="http://www.w3.org/2000/svg">
<path d="M12.841 9.65904C11.9623 8.78032 10.5377 8.78032 9.65904 9.65904C8.78032 10.5377 8.78032 11.9623 9.65904 12.841L25.4039 28.5858C17.867 33.7131 12.2553 41.7323 10.2608 51.2906C10.007 52.5069 10.7873 53.699 12.0038 53.9528C13.2202 54.2066 14.4121 53.4263 14.6659 52.2095C16.4831 43.5015 21.7065 36.2831 28.6521 31.834L35.7901 38.972C31.8284 41.8325 29.25 46.49 29.25 51.75C29.25 60.4485 36.3015 67.5 45 67.5C50.2601 67.5 54.9176 64.9215 57.7782 60.9597L77.1588 80.3412C78.0377 81.2196 79.4624 81.2196 80.3412 80.3412C81.2196 79.4624 81.2196 78.0377 80.3412 77.1588L12.841 9.65904ZM54.5373 57.7193C52.5479 60.8913 49.0203 63 45 63C38.7868 63 33.75 57.9632 33.75 51.75C33.75 47.7297 35.8588 44.2019 39.0307 42.2126L54.5373 57.7193Z" fill="#FF9E01"/>
<path d="M45.5566 36.0095L60.7414 51.1941C60.4548 42.9375 53.8132 36.2958 45.5566 36.0095Z" fill="#FF9E01"/>
<path d="M45.0005 27C42.4363 27 39.9222 27.3309 37.5044 27.9578L33.8906 24.3441C37.4112 23.1449 41.1524 22.5 45.0005 22.5C61.6208 22.5 76.2418 34.529 79.7401 51.2905C79.9939 52.5069 79.2136 53.6985 77.9968 53.9528C76.7804 54.2066 75.5888 53.4263 75.3346 52.2095C72.2588 37.471 59.4262 27 45.0005 27Z" fill="#FF9E01"/>
</svg>
