<svg width="17" height="14" viewBox="0 0 17 14" fill="none" xmlns="http://www.w3.org/2000/svg">
<path d="M15.1135 1.23475C14.7125 0.843373 14.2359 0.532841 13.7113 0.320955C13.1866 0.10907 12.624 0 12.0559 0C11.4878 0 10.9253 0.10907 10.4006 0.320955C9.87587 0.532841 9.39935 0.843373 8.99833 1.23475L8.38281 1.84113L7.7673 1.23475C7.36627 0.843373 6.88975 0.532841 6.36506 0.320955C5.84037 0.10907 5.27784 0 4.70971 0C4.14159 0 3.57905 0.10907 3.05436 0.320955C2.52968 0.532841 2.05316 0.843373 1.65213 1.23475C-0.0425324 2.88288 -0.14645 5.66605 1.98786 7.78063L8.38281 14L14.7778 7.78063C16.9121 5.66605 16.8082 2.88288 15.1135 1.23475Z" fill="#F1F1F1"/>
</svg>
