<svg width="13" height="14" viewBox="0 0 13 14" fill="none" xmlns="http://www.w3.org/2000/svg">
<path d="M12 6.6256L6.79945 11.9763C6.16235 12.6317 5.29824 13 4.39724 13C3.49624 13 2.63213 12.6317 1.99503 11.9763C1.35792 11.3208 1 10.4317 1 9.5047C1 8.57769 1.35792 7.68865 1.99503 7.03315L7.19558 1.6825C7.62031 1.2455 8.19638 1 8.79705 1C9.39772 1 9.97379 1.2455 10.3985 1.6825C10.8233 2.1195 11.0619 2.71219 11.0619 3.3302C11.0619 3.94821 10.8233 4.5409 10.3985 4.9779L5.19232 10.3286C4.97995 10.5471 4.69192 10.6698 4.39158 10.6698C4.09125 10.6698 3.80321 10.5471 3.59084 10.3286C3.37848 10.1101 3.25917 9.81371 3.25917 9.5047C3.25917 9.1957 3.37848 8.89935 3.59084 8.68085L8.39527 3.74358" stroke="#010101" stroke-linecap="round" stroke-linejoin="round"/>
</svg>
