<svg width="21" height="20" viewBox="0 0 21 20" fill="none" xmlns="http://www.w3.org/2000/svg">
<path fill-rule="evenodd" clip-rule="evenodd" d="M4.80961 10.0001C4.80961 9.35054 4.91742 8.72772 5.11008 8.14366L1.73977 5.57007C1.08289 6.90366 0.712891 8.40647 0.712891 10.0001C0.712891 11.5924 1.08258 13.0941 1.73836 14.4269L5.1068 11.8484C4.91602 11.2669 4.80961 10.6465 4.80961 10.0001Z" fill="#FBBC05"/>
<path fill-rule="evenodd" clip-rule="evenodd" d="M10.7276 4.09094C12.1387 4.09094 13.4132 4.59094 14.4146 5.40906L17.3277 2.5C15.5526 0.954531 13.2766 0 10.7276 0C6.77008 0 3.36883 2.26312 1.74023 5.57L5.11039 8.14359C5.88695 5.78641 8.10055 4.09094 10.7276 4.09094Z" fill="#EA4335"/>
<path fill-rule="evenodd" clip-rule="evenodd" d="M10.7276 15.9091C8.1007 15.9091 5.88711 14.2136 5.11055 11.8564L1.74023 14.4296C3.36883 17.7369 6.77008 20 10.7276 20C13.1701 20 15.5021 19.1327 17.2523 17.5077L14.0532 15.0346C13.1505 15.6032 12.0138 15.9091 10.7276 15.9091Z" fill="#34A853"/>
<path fill-rule="evenodd" clip-rule="evenodd" d="M20.2874 10C20.2874 9.40907 20.1963 8.77267 20.0598 8.18188H10.7285V12.0455H16.0998C15.8312 13.3628 15.1002 14.3755 14.0541 15.0345L17.2532 17.5077C19.0916 15.8014 20.2874 13.2595 20.2874 10Z" fill="#4285F4"/>
</svg>
