<svg width="20" height="20" viewBox="0 0 20 20" fill="none" xmlns="http://www.w3.org/2000/svg">
<path d="M10 19.5C8.68717 19.5 7.45292 19.2503 6.29725 18.751C5.14142 18.2517 4.13592 17.5744 3.28075 16.7193C2.42558 15.8641 1.74833 14.8586 1.249 13.7028C0.749667 12.5471 0.5 11.3128 0.5 10C0.5 8.68717 0.749667 7.45292 1.249 6.29725C1.74833 5.14142 2.42558 4.13592 3.28075 3.28075C4.13592 2.42558 5.14142 1.74833 6.29725 1.249C7.45292 0.749667 8.68717 0.5 10 0.5C11.3128 0.5 12.5471 0.749667 13.7028 1.249C14.8586 1.74833 15.8641 2.42558 16.7193 3.28075C17.5744 4.13592 18.2517 5.14142 18.751 6.29725C19.2503 7.45292 19.5 8.68717 19.5 10C19.5 11.3128 19.2503 12.5471 18.751 13.7028C18.2517 14.8586 17.5744 15.8641 16.7193 16.7193C15.8641 17.5744 14.8586 18.2517 13.7028 18.751C12.5471 19.2503 11.3128 19.5 10 19.5ZM9.25 17.9538V16.5308C8.62183 16.4666 8.02567 16.3131 7.4615 16.0703C6.8975 15.8273 6.37892 15.5198 5.90575 15.148L4.898 16.1615C5.49933 16.6653 6.16767 17.074 6.903 17.3875C7.63817 17.701 8.4205 17.8898 9.25 17.9538ZM10.75 17.9538C11.5795 17.8898 12.3603 17.701 13.0922 17.3875C13.8244 17.074 14.4911 16.6653 15.0922 16.1615L14.0943 15.148C13.6211 15.5198 13.1025 15.8273 12.5385 16.0703C11.9743 16.3131 11.3782 16.4666 10.75 16.5308V17.9538ZM10 15.0865C11.409 15.0865 12.609 14.591 13.6 13.6C14.591 12.609 15.0865 11.409 15.0865 10C15.0865 8.591 14.591 7.391 13.6 6.4C12.609 5.409 11.409 4.9135 10 4.9135C8.591 4.9135 7.391 5.409 6.4 6.4C5.409 7.391 4.9135 8.591 4.9135 10C4.9135 11.409 5.409 12.609 6.4 13.6C7.391 14.591 8.591 15.0865 10 15.0865ZM16.1615 15.102C16.6653 14.5007 17.074 13.8323 17.3875 13.097C17.701 12.3618 17.8898 11.5795 17.9538 10.75H16.5308C16.4666 11.3782 16.3131 11.9743 16.0703 12.5385C15.8273 13.1025 15.5198 13.6211 15.148 14.0943L16.1615 15.102ZM3.8385 15.102L4.852 14.0788C4.48017 13.6058 4.17275 13.0898 3.92975 12.5308C3.68692 11.9718 3.53342 11.3782 3.46925 10.75H2.04625C2.11025 11.5795 2.299 12.3618 2.6125 13.097C2.926 13.8323 3.33467 14.5007 3.8385 15.102ZM10 13.7115L7.2115 10L10 6.2885L12.7788 10L10 13.7115ZM2.04625 9.25H3.46925C3.53342 8.62183 3.68692 8.02825 3.92975 7.46925C4.17275 6.91025 4.48017 6.39425 4.852 5.92125L3.8385 4.90775C3.33467 5.50892 2.926 6.17558 2.6125 6.90775C2.299 7.63975 2.11025 8.4205 2.04625 9.25ZM16.5308 9.25H17.9538C17.8898 8.4205 17.6984 7.63975 17.3798 6.90775C17.0613 6.17558 16.6501 5.50892 16.1462 4.90775L15.148 5.90575C15.5198 6.37892 15.8273 6.8975 16.0703 7.4615C16.3131 8.02567 16.4666 8.62183 16.5308 9.25ZM5.92125 4.852C6.39425 4.48017 6.91025 4.17275 7.46925 3.92975C8.02825 3.68692 8.62183 3.53342 9.25 3.46925V2.04625C8.4205 2.11025 7.63817 2.299 6.903 2.6125C6.16767 2.926 5.49933 3.33467 4.898 3.8385L5.92125 4.852ZM14.0943 4.852L15.0922 3.85375C14.4911 3.34992 13.8244 2.93875 13.0922 2.62025C12.3603 2.30158 11.5795 2.11025 10.75 2.04625V3.46925C11.3782 3.53342 11.9743 3.68692 12.5385 3.92975C13.1025 4.17275 13.6211 4.48017 14.0943 4.852Z" fill="#353F49"/>
</svg>
