<svg width="20" height="18" viewBox="0 0 20 18" fill="none" xmlns="http://www.w3.org/2000/svg">
<path d="M19.41 0.59C19.02 0.2 18.55 0 18 0H2C1.45 0 0.97 0.2 0.58 0.59C0.19 0.98 0 1.45 0 2V12C0 12.55 0.19 13.02 0.58 13.41C0.97 13.8 1.45 14 2 14H8V16H6V18H14V16H12V14H18C18.55 14 19.02 13.8 19.41 13.41C19.8 13.02 20 12.55 20 12V2C20 1.45 19.8 0.98 19.41 0.59ZM2 2H9.44V3.81H9.46C9.79 3.81 10.06 4.08 10.06 4.41C10.06 4.74 9.79 5.01 9.46 5.01H9.44V6.72H6.83C6.55 6.34 6.09 6.09 5.57 6.09C5.05 6.09 4.59 6.34 4.31 6.72H2V2ZM2 12V7.72H4.97V7.69C4.97 7.36 5.24 7.09 5.57 7.09C5.9 7.09 6.17 7.36 6.17 7.69V7.72H9.44V8.76C9.07 9.04 8.83 9.5 8.83 10.01C8.83 10.52 9.07 10.97 9.44 11.26V12H2ZM18 12H10.44V10.61H10.43C10.1 10.61 9.83 10.34 9.83 10.01C9.83 9.68 10.1 9.41 10.43 9.41H10.44V7.72H12.86C13.15 8.11 13.61 8.37 14.14 8.37C14.67 8.37 15.14 8.11 15.43 7.72H18V12ZM18 6.72H14.75V6.77C14.75 7.1 14.48 7.37 14.14 7.37C13.8 7.37 13.54 7.1 13.54 6.77V6.72H10.44V5.67C10.82 5.38 11.06 4.92 11.06 4.41C11.06 3.9 10.82 3.44 10.44 3.16V2H18V6.72Z" fill="#353F49"/>
</svg>
