<svg width="24" height="24" viewBox="0 0 24 24" fill="none" xmlns="http://www.w3.org/2000/svg">
<g clip-path="url(#clip0_908_15332)">
<rect x="5" y="2" width="13" height="19" rx="1" stroke="#353F49" stroke-width="2"/>
<path d="M11.666 4.9248C11.7945 4.9248 11.9082 5.02441 11.9082 5.15625V5.55273C12.2243 5.56828 12.5297 5.67477 12.7783 5.85742L12.8174 5.89258C12.8869 5.97029 12.8989 6.0845 12.8389 6.17188L12.8037 6.21289L12.4404 6.54395L12.4414 6.54492C12.3634 6.61666 12.2407 6.63088 12.1475 6.57227H12.1465C12.0547 6.5138 11.9441 6.48148 11.8311 6.48145H11.1406C11.0076 6.48145 10.9082 6.58106 10.9082 6.69434C10.9082 6.78495 10.9734 6.87145 11.0732 6.89844L12.1982 7.20703L12.3154 7.24512C12.8484 7.44938 13.1835 8.00054 13.042 8.56738L13.0039 8.68945C12.8389 9.13208 12.3901 9.40741 11.9082 9.44141V9.84375C11.9082 9.97559 11.7945 10.0752 11.666 10.0752H11.333C11.2046 10.0752 11.0908 9.97559 11.0908 9.84375V9.44629C10.7748 9.4307 10.4693 9.32522 10.2207 9.14258V9.1416C10.1042 9.05642 10.0844 8.88907 10.1963 8.78711L10.5586 8.45508L10.624 8.41309C10.6718 8.39197 10.7258 8.38604 10.7773 8.39746L10.8525 8.42773L10.9248 8.4668C10.9999 8.50048 11.0833 8.5185 11.168 8.51855H11.8594C11.9922 8.51836 12.0908 8.41883 12.0908 8.30566C12.0908 8.2381 12.0548 8.17301 11.9941 8.13281L11.9258 8.10156L10.8574 7.80859C10.4026 7.68359 10.0276 7.33542 9.94336 6.89062L9.93066 6.7998C9.86618 6.13263 10.4117 5.57761 11.0908 5.55176V5.15625C11.0908 5.02441 11.2046 4.9248 11.333 4.9248H11.666Z" fill="#353F49" stroke="#353F49" stroke-width="0.15"/>
<line x1="6" y1="15.5" x2="17" y2="15.5" stroke="#353F49"/>
<line x1="5" y1="12.5" x2="17" y2="12.5" stroke="#353F49"/>
<line x1="15.5" y1="12" x2="15.5" y2="3" stroke="#353F49"/>
<line x1="7.5" y1="12" x2="7.5" y2="3" stroke="#353F49"/>
</g>
<defs>
<clipPath id="clip0_908_15332">
<rect width="24" height="24" fill="white"/>
</clipPath>
</defs>
</svg>
