<svg width="14" height="14" viewBox="0 0 14 14" fill="none" xmlns="http://www.w3.org/2000/svg">
<path d="M6.96536 10.9999C7.1987 10.9999 7.39603 10.9193 7.55736 10.7579C7.71825 10.597 7.7987 10.3999 7.7987 10.1666C7.7987 9.93325 7.71825 9.73614 7.55736 9.57525C7.39603 9.41392 7.1987 9.33325 6.96536 9.33325C6.73203 9.33325 6.5347 9.41392 6.37336 9.57525C6.21248 9.73614 6.13203 9.93325 6.13203 10.1666C6.13203 10.3999 6.21248 10.597 6.37336 10.7579C6.5347 10.9193 6.73203 10.9999 6.96536 10.9999ZM7.06536 4.13325C7.37648 4.13325 7.62648 4.21925 7.81536 4.39125C8.00425 4.5637 8.0987 4.78881 8.0987 5.06659C8.0987 5.25547 8.03492 5.44703 7.90736 5.64125C7.77936 5.83592 7.5987 6.03881 7.36537 6.24992C7.03203 6.53881 6.78759 6.81659 6.63203 7.08325C6.47648 7.34992 6.3987 7.61659 6.3987 7.88325C6.3987 8.03881 6.45714 8.16925 6.57403 8.27459C6.69048 8.38036 6.82648 8.43325 6.98203 8.43325C7.13759 8.43325 7.27648 8.3777 7.3987 8.26659C7.52092 8.15547 7.5987 8.01659 7.63203 7.84992C7.66536 7.66103 7.74048 7.48614 7.85736 7.32525C7.97381 7.16392 8.16536 6.95547 8.43203 6.69992C8.77648 6.3777 9.01825 6.08325 9.15736 5.81659C9.29603 5.54992 9.36537 5.25547 9.36537 4.93325C9.36537 4.36659 9.15159 3.90259 8.72403 3.54125C8.29603 3.18036 7.74314 2.99992 7.06536 2.99992C6.5987 2.99992 6.18492 3.08881 5.82403 3.26659C5.4627 3.44436 5.18203 3.71659 4.98203 4.08325C4.90425 4.2277 4.87648 4.36925 4.8987 4.50792C4.92092 4.64703 4.9987 4.76103 5.13203 4.84992C5.27648 4.93881 5.43492 4.96659 5.60736 4.93325C5.77936 4.89992 5.92092 4.80547 6.03203 4.64992C6.15425 4.48325 6.30159 4.35547 6.47403 4.26659C6.64603 4.1777 6.84314 4.13325 7.06536 4.13325ZM6.9987 13.6666C6.08759 13.6666 5.22648 13.4915 4.41536 13.1413C3.60425 12.7915 2.89603 12.3166 2.2907 11.7166C1.68492 11.1166 1.20714 10.411 0.857365 9.59992C0.507142 8.78881 0.332031 7.92214 0.332031 6.99992C0.332031 6.0777 0.507142 5.21103 0.857365 4.39992C1.20714 3.58881 1.68492 2.88325 2.2907 2.28325C2.89603 1.68325 3.60425 1.20814 4.41536 0.857919C5.22648 0.508141 6.08759 0.333252 6.9987 0.333252C7.93203 0.333252 8.80425 0.508141 9.61537 0.857919C10.4265 1.20814 11.132 1.68325 11.732 2.28325C12.332 2.88325 12.8043 3.58881 13.1487 4.39992C13.4931 5.21103 13.6654 6.0777 13.6654 6.99992C13.6654 7.92214 13.4931 8.78881 13.1487 9.59992C12.8043 10.411 12.332 11.1166 11.732 11.7166C11.132 12.3166 10.4265 12.7915 9.61537 13.1413C8.80425 13.4915 7.93203 13.6666 6.9987 13.6666ZM6.9987 12.3333C8.48759 12.3333 9.7487 11.8139 10.782 10.7753C11.8154 9.73614 12.332 8.4777 12.332 6.99992C12.332 5.52214 11.8154 4.2637 10.782 3.22459C9.7487 2.18592 8.48759 1.66659 6.9987 1.66659C5.54314 1.66659 4.29025 2.18592 3.24003 3.22459C2.19025 4.2637 1.66536 5.52214 1.66536 6.99992C1.66536 8.4777 2.19025 9.73614 3.24003 10.7753C4.29025 11.8139 5.54314 12.3333 6.9987 12.3333Z" fill="#1D2433" fill-opacity="0.8"/>
</svg>
