<svg width="72" height="72" viewBox="0 0 72 72" fill="none" xmlns="http://www.w3.org/2000/svg">
<path d="M36 0C55.8824 0 72 16.1177 72 36C72 55.8824 55.8824 72 36 72C16.1177 72 0 55.8824 0 36C0 16.1177 16.1177 0 36 0ZM36 4.5C18.603 4.5 4.5 18.603 4.5 36C4.5 53.397 18.603 67.5 36 67.5C53.397 67.5 67.5 53.397 67.5 36C67.5 18.603 53.397 4.5 36 4.5ZM36 47.25C37.8639 47.25 39.375 48.7611 39.375 50.625C39.375 52.4889 37.8639 54 36 54C34.1361 54 32.625 52.4889 32.625 50.625C32.625 48.7611 34.1361 47.25 36 47.25ZM36 18C37.1048 18 38.0232 18.796 38.2136 19.8455L38.25 20.25V40.5C38.25 41.7425 37.2425 42.75 36 42.75C34.8954 42.75 33.9768 41.9539 33.7863 40.9045L33.75 40.5V20.25C33.75 19.0074 34.7574 18 36 18Z" fill="#FF9E01"/>
</svg>
