<svg width="72" height="59" viewBox="0 0 72 59" fill="none" xmlns="http://www.w3.org/2000/svg">
<path d="M60.75 0C66.9632 0 72 5.03681 72 11.25V47.25C72 53.4632 66.9632 58.5 60.75 58.5H11.25C5.03681 58.5 0 53.4632 0 47.25V11.25C0 5.03681 5.03681 0 11.25 0H60.75ZM67.5 17.8245L37.1408 35.6895C36.554 36.0346 35.8497 36.0923 35.2238 35.8619L34.8592 35.6895L4.5 17.8335V47.25C4.5 50.9778 7.52207 54 11.25 54H60.75C64.4778 54 67.5 50.9778 67.5 47.25V17.8245ZM60.75 4.5H11.25C7.52207 4.5 4.5 7.52207 4.5 11.25V12.609L36 31.1395L67.5 12.6045V11.25C67.5 7.52207 64.4778 4.5 60.75 4.5Z" fill="#FF9E01"/>
</svg>
