<svg width="22" height="21" viewBox="0 0 11 8" fill="none" xmlns="http://www.w3.org/2000/svg">
    <path d="M5.5 6.34985C6.125 6.34985 6.65625 6.1311 7.09375 5.6936C7.53125 5.2561 7.75 4.72485 7.75 4.09985C7.75 3.47485 7.53125 2.9436 7.09375 2.5061C6.65625 2.0686 6.125 1.84985 5.5 1.84985C4.875 1.84985 4.34375 2.0686 3.90625 2.5061C3.46875 2.9436 3.25 3.47485 3.25 4.09985C3.25 4.72485 3.46875 5.2561 3.90625 5.6936C4.34375 6.1311 4.875 6.34985 5.5 6.34985ZM5.5 5.44985C5.125 5.44985 4.80625 5.3186 4.54375 5.0561C4.28125 4.7936 4.15 4.47485 4.15 4.09985C4.15 3.72485 4.28125 3.4061 4.54375 3.1436C4.80625 2.8811 5.125 2.74985 5.5 2.74985C5.875 2.74985 6.19375 2.8811 6.45625 3.1436C6.71875 3.4061 6.85 3.72485 6.85 4.09985C6.85 4.47485 6.71875 4.7936 6.45625 5.0561C6.19375 5.3186 5.875 5.44985 5.5 5.44985ZM5.5 7.84985C4.28333 7.84985 3.175 7.51027 2.175 6.8311C1.175 6.15194 0.45 5.24152 0 4.09985C0.45 2.95819 1.175 2.04777 2.175 1.3686C3.175 0.689437 4.28333 0.349854 5.5 0.349854C6.71667 0.349854 7.825 0.689437 8.825 1.3686C9.825 2.04777 10.55 2.95819 11 4.09985C10.55 5.24152 9.825 6.15194 8.825 6.8311C7.825 7.51027 6.71667 7.84985 5.5 7.84985ZM5.5 6.84985C6.44167 6.84985 7.30625 6.60194 8.09375 6.1061C8.88125 5.61027 9.48333 4.94152 9.9 4.09985C9.48333 3.25819 8.88125 2.58944 8.09375 2.0936C7.30625 1.59777 6.44167 1.34985 5.5 1.34985C4.55833 1.34985 3.69375 1.59777 2.90625 2.0936C2.11875 2.58944 1.51667 3.25819 1.1 4.09985C1.51667 4.94152 2.11875 5.61027 2.90625 6.1061C3.69375 6.60194 4.55833 6.84985 5.5 6.84985Z"
          fill="#353F49"/>
</svg>
