<svg width="22" height="21" viewBox="0 0 22 21" fill="none" xmlns="http://www.w3.org/2000/svg">
<path d="M15.1 11.3L13.65 9.84999C13.8 9.06666 13.575 8.33332 12.975 7.64999C12.375 6.96665 11.6 6.69999 10.65 6.84999L9.2 5.39999C9.48333 5.26665 9.77083 5.16666 10.0625 5.09999C10.3542 5.03332 10.6667 4.99999 11 4.99999C12.25 4.99999 13.3125 5.43749 14.1875 6.31249C15.0625 7.18749 15.5 8.24999 15.5 9.49999C15.5 9.83332 15.4667 10.1458 15.4 10.4375C15.3333 10.7292 15.2333 11.0167 15.1 11.3ZM18.3 14.45L16.85 13.05C17.4833 12.5667 18.0458 12.0375 18.5375 11.4625C19.0292 10.8875 19.45 10.2333 19.8 9.49999C18.9667 7.81666 17.7708 6.47916 16.2125 5.48749C14.6542 4.49582 12.9167 3.99999 11 3.99999C10.5167 3.99999 10.0417 4.03332 9.575 4.09999C9.10833 4.16665 8.65 4.26665 8.2 4.39999L6.65 2.84999C7.33333 2.56665 8.03333 2.35415 8.75 2.21249C9.46667 2.07082 10.2167 1.99999 11 1.99999C13.5167 1.99999 15.7583 2.69582 17.725 4.08749C19.6917 5.47916 21.1167 7.28332 22 9.49999C21.6167 10.4833 21.1125 11.3958 20.4875 12.2375C19.8625 13.0792 19.1333 13.8167 18.3 14.45ZM18.8 20.6L14.6 16.45C14.0167 16.6333 13.4292 16.7708 12.8375 16.8625C12.2458 16.9542 11.6333 17 11 17C8.48333 17 6.24167 16.3042 4.275 14.9125C2.30833 13.5208 0.883333 11.7167 0 9.49999C0.35 8.61666 0.791667 7.79582 1.325 7.03749C1.85833 6.27915 2.46667 5.59999 3.15 4.99999L0.4 2.19999L1.8 0.799988L20.2 19.2L18.8 20.6ZM4.55 6.39999C4.06667 6.83332 3.625 7.30832 3.225 7.82499C2.825 8.34166 2.48333 8.89999 2.2 9.49999C3.03333 11.1833 4.22917 12.5208 5.7875 13.5125C7.34583 14.5042 9.08333 15 11 15C11.3333 15 11.6583 14.9792 11.975 14.9375C12.2917 14.8958 12.6167 14.85 12.95 14.8L12.05 13.85C11.8667 13.9 11.6917 13.9375 11.525 13.9625C11.3583 13.9875 11.1833 14 11 14C9.75 14 8.6875 13.5625 7.8125 12.6875C6.9375 11.8125 6.5 10.75 6.5 9.49999C6.5 9.31666 6.5125 9.14165 6.5375 8.97499C6.5625 8.80832 6.6 8.63332 6.65 8.44999L4.55 6.39999Z" fill="#748392"/>
</svg>
