<svg width="20" height="20" viewBox="0 0 20 20" fill="none" xmlns="http://www.w3.org/2000/svg">
<path d="M2 18C1.45 18 0.979167 17.8042 0.5875 17.4125C0.195833 17.0208 0 16.55 0 16V2C0 1.45 0.195833 0.979167 0.5875 0.5875C0.979167 0.195833 1.45 0 2 0H16C16.55 0 17.0208 0.195833 17.4125 0.5875C17.8042 0.979167 18 1.45 18 2V10.325C17.6833 10.1417 17.3583 9.975 17.025 9.825C16.6917 9.675 16.35 9.54167 16 9.425V6H10V9.425C9.23333 9.65833 8.51667 9.99167 7.85 10.425C7.18333 10.8583 6.56667 11.3833 6 12H2V16H4.05C4.23333 16.3667 4.41667 16.7167 4.6 17.05C4.78333 17.3833 4.98333 17.7 5.2 18H2ZM2 10H8V6H2V10ZM2 4H16V2H2V4ZM13 20C11.4833 20 10.0833 19.6 8.8 18.8C7.51667 18 6.58333 16.9 6 15.5C6.58333 14.1 7.51667 13 8.8 12.2C10.0833 11.4 11.4833 11 13 11C14.5167 11 15.9167 11.4 17.2 12.2C18.4833 13 19.4167 14.1 20 15.5C19.4167 16.9 18.4833 18 17.2 18.8C15.9167 19.6 14.5167 20 13 20ZM13 18C13.95 18 14.8458 17.7833 15.6875 17.35C16.5292 16.9167 17.2167 16.3 17.75 15.5C17.2167 14.7 16.5292 14.0833 15.6875 13.65C14.8458 13.2167 13.95 13 13 13C12.05 13 11.1542 13.2167 10.3125 13.65C9.47083 14.0833 8.78333 14.7 8.25 15.5C8.78333 16.3 9.47083 16.9167 10.3125 17.35C11.1542 17.7833 12.05 18 13 18ZM13 17C12.5833 17 12.2292 16.8542 11.9375 16.5625C11.6458 16.2708 11.5 15.9167 11.5 15.5C11.5 15.0833 11.6458 14.7292 11.9375 14.4375C12.2292 14.1458 12.5833 14 13 14C13.4167 14 13.7708 14.1458 14.0625 14.4375C14.3542 14.7292 14.5 15.0833 14.5 15.5C14.5 15.9167 14.3542 16.2708 14.0625 16.5625C13.7708 16.8542 13.4167 17 13 17Z" fill="#748392"/>
</svg>
