<svg width="17" height="17" viewBox="0 0 17 17" fill="none" xmlns="http://www.w3.org/2000/svg">
<path fill-rule="evenodd" clip-rule="evenodd" d="M11.7115 0.0545289C11.4619 0.139775 11.3857 0.20223 10.5966 0.968918L9.85927 1.68523L5.50743 1.69478L1.15559 1.70433L0.918756 1.7832C0.614127 1.88465 0.404124 2.03513 0.307053 2.22154C0.160996 2.50194 0.252529 2.92493 0.541944 3.3071C0.593303 3.3749 1.47248 4.25051 2.49563 5.25289L4.35595 7.0754L2.26682 9.12772C0.616968 10.7485 0.159702 11.2171 0.0920862 11.3562C-0.0317074 11.6109 -0.0305206 12.0573 0.0946398 12.3073C0.207068 12.5318 0.42279 12.7431 0.652071 12.8532C0.906959 12.9756 1.3629 12.977 1.62314 12.856C1.76931 12.7881 2.84205 11.7563 7.35336 7.34407C10.4061 4.35848 12.9504 1.85034 13.0075 1.77044C13.4419 1.16262 13.1414 0.28015 12.4225 0.0527676C12.1981 -0.0182122 11.9225 -0.0175429 11.7115 0.0545289ZM11.199 5.90203L6.8921 10.1234V13.3148C6.8921 15.6319 6.90347 16.539 6.93357 16.626C7.00252 16.8251 7.10236 16.935 7.255 16.9798C7.49589 17.0505 7.68238 16.9615 8.68963 16.2952C9.43786 15.8002 9.63714 15.6509 9.77568 15.4817C10.0062 15.2 10.1887 14.8487 10.2739 14.5226C10.341 14.2658 10.3448 14.1247 10.3448 11.9238V9.59658L13.4334 6.56632C15.1321 4.89968 16.5958 3.43658 16.686 3.31502C17.329 2.44857 16.9613 1.7827 15.7947 1.70091L15.5059 1.68065L11.199 5.90203Z" fill="white"/>
</svg>
