<svg width="68" height="68" viewBox="0 0 68 68" fill="none" xmlns="http://www.w3.org/2000/svg">
<path d="M33.75 67.5C27.0749 67.5 20.5497 65.5206 14.9995 61.8121C9.44936 58.1036 5.12354 52.8326 2.56908 46.6656C0.0146237 40.4986 -0.653739 33.7126 0.648512 27.1657C1.95076 20.6189 5.16514 14.6052 9.88516 9.88516C14.6052 5.16514 20.6189 1.95076 27.1657 0.648512C33.7126 -0.653739 40.4986 0.0146237 46.6656 2.56908C52.8326 5.12354 58.1036 9.44936 61.8121 14.9995C65.5206 20.5497 67.5 27.0749 67.5 33.75C67.5 42.7011 63.9442 51.2855 57.6149 57.6149C51.2855 63.9442 42.7011 67.5 33.75 67.5ZM33.75 4.50002C27.9649 4.50002 22.3097 6.2155 17.4996 9.42953C12.6894 12.6436 8.9404 17.2118 6.72654 22.5565C4.51268 27.9013 3.93343 33.7825 5.06205 39.4564C6.19066 45.1304 8.97646 50.3422 13.0671 54.4329C17.1578 58.5236 22.3697 61.3094 28.0436 62.438C33.7176 63.5666 39.5988 62.9874 44.9435 60.7735C50.2882 58.5596 54.8565 54.8106 58.0705 50.0004C61.2845 45.1903 63 39.5351 63 33.75C63 25.9924 59.9183 18.5526 54.4329 13.0671C48.9475 7.5817 41.5076 4.50002 33.75 4.50002Z" fill="#FF9E01"/>
<path d="M43.29 46.485L32.1525 35.3475C31.944 35.1373 31.779 34.8879 31.6671 34.6138C31.5551 34.3397 31.4983 34.0461 31.5 33.75V15.75H36V32.8275L46.485 43.29L43.29 46.485Z" fill="#FF9E01"/>
</svg>
