<svg width="90" height="90" viewBox="0 0 90 90" fill="none" xmlns="http://www.w3.org/2000/svg">
<path d="M50.4 23.3999C50.4 20.4176 47.9822 17.9999 45 17.9999C42.0177 17.9999 39.6 20.4176 39.6 23.3999H36C36 18.4293 40.0294 14.3999 45 14.3999C49.9705 14.3999 54 18.4293 54 23.3999H70.2C71.194 23.3999 72 24.2058 72 25.1999C72 26.194 71.194 26.9999 70.2 26.9999H68.2056L63.5396 67.425C63.1206 71.0581 60.0444 73.7999 56.3872 73.7999H33.6128C29.9556 73.7999 26.8794 71.0581 26.4602 67.425L21.7908 26.9999H19.8C18.9163 26.9999 18.1814 26.3631 18.029 25.5235L18 25.1999C18 24.2058 18.8059 23.3999 19.8 23.3999H50.4ZM64.5768 26.9999H25.4196L30.0365 67.0125C30.2461 68.829 31.7842 70.1999 33.6128 70.1999H56.3872C58.216 70.1999 59.7539 68.829 59.9634 67.0125L64.5768 26.9999ZM39.6 35.9999C40.4837 35.9999 41.2186 36.5571 41.371 37.2918L41.4 37.5749V59.6249C41.4 60.4947 40.5941 61.1999 39.6 61.1999C38.7163 61.1999 37.9814 60.6426 37.829 59.9079L37.8 59.6249V37.5749C37.8 36.7051 38.6059 35.9999 39.6 35.9999ZM50.4 35.9999C51.2838 35.9999 52.0186 36.5571 52.1708 37.2918L52.2 37.5749V59.6249C52.2 60.4947 51.394 61.1999 50.4 61.1999C49.5162 61.1999 48.7814 60.6426 48.6292 59.9079L48.6 59.6249V37.5749C48.6 36.7051 49.406 35.9999 50.4 35.9999Z" fill="#FF9E01"/>
</svg>
