<svg width="17" height="16" viewBox="0 0 17 16" fill="none" xmlns="http://www.w3.org/2000/svg">
<path fill-rule="evenodd" clip-rule="evenodd" d="M2.83099 0.922535C2.05312 0.922535 1.42254 1.55312 1.42254 2.33099V13.669C1.42254 14.4183 2.0077 15.031 2.746 15.0749L11.59 6.23089C11.6297 6.19127 11.6834 6.16901 11.7394 6.16901C11.7955 6.16901 11.8492 6.19127 11.8888 6.23089L15.5775 9.91953V2.33099C15.5775 1.55312 14.9469 0.922535 14.169 0.922535H2.83099ZM16 10.4292V2.33099C16 1.31976 15.1802 0.5 14.169 0.5H2.83099C1.81976 0.5 1 1.31976 1 2.33099V13.669C1 14.6802 1.81976 15.5 2.83099 15.5H14.169C15.1802 15.5 16 14.6802 16 13.669V10.43V10.4292ZM15.5775 10.5171L11.7394 6.67906L3.34103 15.0775H14.169C14.9469 15.0775 15.5775 14.4469 15.5775 13.669V10.5171ZM5.66549 4.16197C5.11126 4.16197 4.66197 4.61126 4.66197 5.16549C4.66197 5.71972 5.11126 6.16901 5.66549 6.16901C6.21972 6.16901 6.66901 5.71972 6.66901 5.16549C6.66901 4.61126 6.21972 4.16197 5.66549 4.16197ZM4.23944 5.16549C4.23944 4.3779 4.8779 3.73944 5.66549 3.73944C6.45308 3.73944 7.09155 4.3779 7.09155 5.16549C7.09155 5.95308 6.45308 6.59155 5.66549 6.59155C4.8779 6.59155 4.23944 5.95308 4.23944 5.16549Z" fill="#353F49" stroke="#010101" stroke-linecap="round" stroke-linejoin="round"/>
</svg>
