<svg width="90" height="90" viewBox="0 0 90 90" fill="none" xmlns="http://www.w3.org/2000/svg">
    <path d="M45 9C64.8824 9 81 25.1177 81 45C81 64.8824 64.8824 81 45 81C25.1177 81 9 64.8824 9 45C9 25.1177 25.1177 9 45 9ZM45 13.5C27.603 13.5 13.5 27.603 13.5 45C13.5 62.397 27.603 76.5 45 76.5C62.397 76.5 76.5 62.397 76.5 45C76.5 27.603 62.397 13.5 45 13.5Z"
          fill="#FF9E01"/>
    
    <path d="M57.509 29.1992C57.1972 28.6822 56.7573 28.2542 56.2319 27.9565C55.7066 27.6589 55.1133 27.5017 54.5095 27.5H35.4905C34.269 27.5 33.1193 28.151 32.491 29.1992L27.7503 37.0988C27.5862 37.3707 27.4997 37.6824 27.5 38C27.507 39.6891 28.1291 41.3179 29.25 42.5815V57.25C29.25 59.1803 30.8198 60.75 32.75 60.75H57.25C59.1803 60.75 60.75 59.1803 60.75 57.25V42.5815C61.8709 41.3179 62.493 39.6891 62.5 38C62.5003 37.6824 62.4138 37.3707 62.2498 37.0988L57.509 29.1992ZM58.972 38.4393C58.864 39.2842 58.452 40.0609 57.813 40.6242C57.174 41.1875 56.3518 41.4988 55.5 41.5C53.5697 41.5 52 39.9303 52 38C52 37.881 51.9563 37.776 51.9318 37.664L51.9668 37.657L50.635 31H54.5095L58.972 38.4393ZM42.9333 31H47.065L48.4878 38.1137C48.4265 39.9897 46.89 41.5 45 41.5C43.11 41.5 41.5735 39.9897 41.5123 38.1137L42.9333 31ZM35.4905 31H39.365L38.035 37.657L38.07 37.664C38.0438 37.776 38 37.881 38 38C38 39.9303 36.4303 41.5 34.5 41.5C33.6482 41.4988 32.826 41.1875 32.187 40.6242C31.548 40.0609 31.136 39.2842 31.028 38.4393L35.4905 31ZM41.5 57.25V52H48.5V57.25H41.5ZM52 57.25V52C52 50.0697 50.4303 48.5 48.5 48.5H41.5C39.5698 48.5 38 50.0697 38 52V57.25H32.75V44.7515C33.3118 44.8967 33.891 45 34.5 45C35.4937 45.0005 36.476 44.7889 37.3814 44.3794C38.2867 43.9699 39.0943 43.3719 39.75 42.6252C41.0328 44.0812 42.9123 45 45 45C47.0878 45 48.9673 44.0812 50.25 42.6252C50.9057 43.3719 51.7133 43.9699 52.6186 44.3794C53.524 44.7889 54.5063 45.0005 55.5 45C56.109 45 56.6882 44.8967 57.25 44.7515V57.25H52Z"
          fill="#FF9E01"/>
</svg>
